<?xml version="1.0" encoding="utf-8"?>
<!-- Generator: Adobe Illustrator 16.0.0, SVG Export Plug-In . SVG Version: 6.00 Build 0)  -->
<!DOCTYPE svg PUBLIC "-//W3C//DTD SVG 1.1//EN" "http://www.w3.org/Graphics/SVG/1.1/DTD/svg11.dtd">
<svg version="1.1" id="Layer_1" xmlns="http://www.w3.org/2000/svg" xmlns:xlink="http://www.w3.org/1999/xlink" x="0px" y="0px"
	 width="141.732px" height="99.213px" viewBox="0 0 141.732 99.213" enable-background="new 0 0 141.732 99.213"
	 xml:space="preserve">
<g>
	<path fill-rule="evenodd" clip-rule="evenodd" fill="#2F9148" d="M93.934,5.705c8.708-0.001,17.415-0.048,26.121,0.012
		c9.095,0.063,14.491,5.425,14.543,14.51c0.066,11.662,0.061,23.324,0.002,34.984c-0.046,9.374-5.235,14.64-14.85,14.721
		c-13.992,0.117-27.986-0.042-41.979-0.067c-3.42-0.006-6.842,0.109-10.26,0.057c-8.827-0.136-14.292-5.485-14.375-14.31
		c-0.11-11.815-0.104-23.634-0.002-35.45c0.079-9.082,5.496-14.363,14.68-14.441C76.52,5.648,85.226,5.706,93.934,5.705z
		 M62.886,59.392c7.277,1.355,58.729,0.871,61.831-0.438c0-14.395,0-28.767,0-43.041c-20.883,0-41.315,0-61.831,0
		C62.886,30.654,62.886,44.911,62.886,59.392z"/>
	<path fill-rule="evenodd" clip-rule="evenodd" fill="#2F9148" d="M46.578,46.55c0,2.262,0,4.073,0,6.619
		c-10.596,0-21.058,0-32.01,0c0,11.467,0,22.213,0,33.453c13.554,0,27.082,0,41.058,0c0.219-3.838,0.427-7.488,0.664-11.636
		c2.106-0.12,4.012-0.229,6.304-0.359c1.223,4.905,1.515,9.483-0.221,13.905c-1.412,3.602-4.416,5.796-8.301,5.845
		c-12.432,0.157-24.869,0.24-37.298,0.003c-5.771-0.11-9.478-4.155-9.575-9.96c-0.157-9.323-0.147-18.653,0.001-27.976
		c0.086-5.434,2.997-9.488,8.13-9.744C25.52,46.193,35.75,46.55,46.578,46.55z"/>
	<path fill-rule="evenodd" clip-rule="evenodd" fill="#2F9148" d="M76.669,72.435c1.63,0.132,2.767,0.224,4.437,0.359
		c0,4.864,0,9.434,0,14.399c9.772,0,18.988,0,28.913,0c0-4.857,0-9.559,0-14.549c1.851,0,2.997,0,4.15,0
		c0.272,0.55,0.636,0.952,0.645,1.36c0.083,3.722,0.241,7.452,0.108,11.17c-0.165,4.618-2.672,7.225-7.321,7.302
		c-8.226,0.135-16.458,0.093-24.684-0.096c-4.103-0.094-7.009-3.128-6.999-7.23C75.929,81.146,76.372,77.142,76.669,72.435z"/>
</g>
</svg>